<svg viewBox="0 0 1496 400" xmlns="http://www.w3.org/2000/svg"><g><g><g><g><g><line x1="30" y1="378" x2="25" y2="378" style="visibility: inherit;" fill="rgb(0, 0, 0)" stroke="rgb(204, 204, 204)" stroke-width="1px"></line><line x1="30" y1="340.2" x2="25" y2="340.2" style="visibility: inherit;" fill="rgb(0, 0, 0)" stroke="rgb(204, 204, 204)" stroke-width="1px"></line><line x1="30" y1="302.4" x2="25" y2="302.4" style="visibility: inherit;" fill="rgb(0, 0, 0)" stroke="rgb(204, 204, 204)" stroke-width="1px"></line><line x1="30" y1="264.6" x2="25" y2="264.6" style="visibility: inherit;" fill="rgb(0, 0, 0)" stroke="rgb(204, 204, 204)" stroke-width="1px"></line><line x1="30" y1="226.79999999999998" x2="25" y2="226.79999999999998" style="visibility: inherit;" fill="rgb(0, 0, 0)" stroke="rgb(204, 204, 204)" stroke-width="1px"></line><line x1="30" y1="189" x2="25" y2="189" style="visibility: inherit;" fill="rgb(0, 0, 0)" stroke="rgb(204, 204, 204)" stroke-width="1px"></line><line x1="30" y1="151.20000000000002" x2="25" y2="151.20000000000002" style="visibility: inherit;" fill="rgb(0, 0, 0)" stroke="rgb(204, 204, 204)" stroke-width="1px"></line><line x1="30" y1="113.40000000000003" x2="25" y2="113.40000000000003" style="visibility: inherit;" fill="rgb(0, 0, 0)" stroke="rgb(204, 204, 204)" stroke-width="1px"></line><line x1="30" y1="75.59999999999997" x2="25" y2="75.59999999999997" style="visibility: inherit;" fill="rgb(0, 0, 0)" stroke="rgb(204, 204, 204)" stroke-width="1px"></line><line x1="30" y1="37.80000000000001" x2="25" y2="37.80000000000001" style="visibility: inherit;" fill="rgb(0, 0, 0)" stroke="rgb(204, 204, 204)" stroke-width="1px"></line><line x1="30" y1="0" x2="25" y2="0" style="visibility: inherit;" fill="rgb(0, 0, 0)" stroke="rgb(204, 204, 204)" stroke-width="1px"></line></g><g transform="translate(20, 0)"><text x="0" y="378" dx="0em" dy="0.3em" style="text-anchor: end; visibility: hidden; font-family: &quot;Helvetica Neue&quot;, sans-serif; font-size: 12px; font-weight: 200;" fill="rgb(50, 49, 63)" stroke="none" stroke-width="1px">-5</text><text x="0" y="340.2" dx="0em" dy="0.3em" style="text-anchor: end; visibility: inherit; font-family: &quot;Helvetica Neue&quot;, sans-serif; font-size: 12px; font-weight: 200;" fill="rgb(50, 49, 63)" stroke="none" stroke-width="1px">0</text><text x="0" y="302.4" dx="0em" dy="0.3em" style="text-anchor: end; visibility: inherit; font-family: &quot;Helvetica Neue&quot;, sans-serif; font-size: 12px; font-weight: 200;" fill="rgb(50, 49, 63)" stroke="none" stroke-width="1px">5</text><text x="0" y="264.6" dx="0em" dy="0.3em" style="text-anchor: end; visibility: inherit; font-family: &quot;Helvetica Neue&quot;, sans-serif; font-size: 12px; font-weight: 200;" fill="rgb(50, 49, 63)" stroke="none" stroke-width="1px">10</text><text x="0" y="226.79999999999998" dx="0em" dy="0.3em" style="text-anchor: end; visibility: inherit; font-family: &quot;Helvetica Neue&quot;, sans-serif; font-size: 12px; font-weight: 200;" fill="rgb(50, 49, 63)" stroke="none" stroke-width="1px">15</text><text x="0" y="189" dx="0em" dy="0.3em" style="text-anchor: end; visibility: inherit; font-family: &quot;Helvetica Neue&quot;, sans-serif; font-size: 12px; font-weight: 200;" fill="rgb(50, 49, 63)" stroke="none" stroke-width="1px">20</text><text x="0" y="151.20000000000002" dx="0em" dy="0.3em" style="text-anchor: end; visibility: inherit; font-family: &quot;Helvetica Neue&quot;, sans-serif; font-size: 12px; font-weight: 200;" fill="rgb(50, 49, 63)" stroke="none" stroke-width="1px">25</text><text x="0" y="113.40000000000003" dx="0em" dy="0.3em" style="text-anchor: end; visibility: inherit; font-family: &quot;Helvetica Neue&quot;, sans-serif; font-size: 12px; font-weight: 200;" fill="rgb(50, 49, 63)" stroke="none" stroke-width="1px">30</text><text x="0" y="75.59999999999997" dx="0em" dy="0.3em" style="text-anchor: end; visibility: inherit; font-family: &quot;Helvetica Neue&quot;, sans-serif; font-size: 12px; font-weight: 200;" fill="rgb(50, 49, 63)" stroke="none" stroke-width="1px">35</text><text x="0" y="37.80000000000001" dx="0em" dy="0.3em" style="text-anchor: end; visibility: inherit; font-family: &quot;Helvetica Neue&quot;, sans-serif; font-size: 12px; font-weight: 200;" fill="rgb(50, 49, 63)" stroke="none" stroke-width="1px">40</text><text x="0" y="0" dx="0em" dy="0.3em" style="text-anchor: end; visibility: hidden; font-family: &quot;Helvetica Neue&quot;, sans-serif; font-size: 12px; font-weight: 200;" fill="rgb(50, 49, 63)" stroke="none" stroke-width="1px">45</text></g><line x1="30" y1="0" x2="30" y2="378" fill="rgb(0, 0, 0)" stroke="rgb(204, 204, 204)" stroke-width="1px"></line></g></g><g transform="translate(30, 0)" clip-path="url(#clip_0)"><clipPath id="clip_0"><rect width="1466" height="378"></rect></clipPath><g><g><g><line x1="0" y1="0" x2="0" y2="378" fill="rgb(0, 0, 0)" stroke="rgb(60, 60, 60)" stroke-width="1px" opacity="0.25"></line><line x1="162.88888888888889" y1="0" x2="162.88888888888889" y2="378" fill="rgb(0, 0, 0)" stroke="rgb(60, 60, 60)" stroke-width="1px" opacity="0.25"></line><line x1="325.77777777777777" y1="0" x2="325.77777777777777" y2="378" fill="rgb(0, 0, 0)" stroke="rgb(60, 60, 60)" stroke-width="1px" opacity="0.25"></line><line x1="488.66666666666663" y1="0" x2="488.66666666666663" y2="378" fill="rgb(0, 0, 0)" stroke="rgb(60, 60, 60)" stroke-width="1px" opacity="0.25"></line><line x1="651.5555555555555" y1="0" x2="651.5555555555555" y2="378" fill="rgb(0, 0, 0)" stroke="rgb(60, 60, 60)" stroke-width="1px" opacity="0.25"></line><line x1="814.4444444444445" y1="0" x2="814.4444444444445" y2="378" fill="rgb(0, 0, 0)" stroke="rgb(60, 60, 60)" stroke-width="1px" opacity="0.25"></line><line x1="977.3333333333333" y1="0" x2="977.3333333333333" y2="378" fill="rgb(0, 0, 0)" stroke="rgb(60, 60, 60)" stroke-width="1px" opacity="0.25"></line><line x1="1140.2222222222222" y1="0" x2="1140.2222222222222" y2="378" fill="rgb(0, 0, 0)" stroke="rgb(60, 60, 60)" stroke-width="1px" opacity="0.25"></line><line x1="1303.111111111111" y1="0" x2="1303.111111111111" y2="378" fill="rgb(0, 0, 0)" stroke="rgb(60, 60, 60)" stroke-width="1px" opacity="0.25"></line><line x1="1466" y1="0" x2="1466" y2="378" fill="rgb(0, 0, 0)" stroke="rgb(60, 60, 60)" stroke-width="1px" opacity="0.25"></line></g><g><line x1="0" y1="378" x2="1466" y2="378" fill="rgb(0, 0, 0)" stroke="rgb(60, 60, 60)" stroke-width="1px" opacity="0.25"></line><line x1="0" y1="340.2" x2="1466" y2="340.2" fill="rgb(0, 0, 0)" stroke="rgb(60, 60, 60)" stroke-width="1px" opacity="0.25"></line><line x1="0" y1="302.4" x2="1466" y2="302.4" fill="rgb(0, 0, 0)" stroke="rgb(60, 60, 60)" stroke-width="1px" opacity="0.25"></line><line x1="0" y1="264.6" x2="1466" y2="264.6" fill="rgb(0, 0, 0)" stroke="rgb(60, 60, 60)" stroke-width="1px" opacity="0.25"></line><line x1="0" y1="226.79999999999998" x2="1466" y2="226.79999999999998" fill="rgb(0, 0, 0)" stroke="rgb(60, 60, 60)" stroke-width="1px" opacity="0.25"></line><line x1="0" y1="189" x2="1466" y2="189" fill="rgb(0, 0, 0)" stroke="rgb(60, 60, 60)" stroke-width="1px" opacity="0.25"></line><line x1="0" y1="151.20000000000002" x2="1466" y2="151.20000000000002" fill="rgb(0, 0, 0)" stroke="rgb(60, 60, 60)" stroke-width="1px" opacity="0.25"></line><line x1="0" y1="113.40000000000003" x2="1466" y2="113.40000000000003" fill="rgb(0, 0, 0)" stroke="rgb(60, 60, 60)" stroke-width="1px" opacity="0.25"></line><line x1="0" y1="75.59999999999997" x2="1466" y2="75.59999999999997" fill="rgb(0, 0, 0)" stroke="rgb(60, 60, 60)" stroke-width="1px" opacity="0.25"></line><line x1="0" y1="37.80000000000001" x2="1466" y2="37.80000000000001" fill="rgb(0, 0, 0)" stroke="rgb(60, 60, 60)" stroke-width="1px" opacity="0.25"></line><line x1="0" y1="0" x2="1466" y2="0" fill="rgb(0, 0, 0)" stroke="rgb(60, 60, 60)" stroke-width="1px" opacity="0.25"></line></g></g></g><g><g><line x1="0" y1="340.2" x2="1466" y2="340.2" fill="rgb(0, 0, 0)" stroke="rgb(153, 153, 153)" stroke-width="1.5px"></line></g></g><g><g><line x1="162.88888888888889" y1="0" x2="162.88888888888889" y2="378" fill="rgb(0, 0, 0)" stroke="rgb(153, 153, 153)" stroke-width="1.5px"></line></g></g><g><g><g><g><g><path stroke="rgb(204, 51, 17)" stroke-width="2px" d="M166.87966666666665,340.2L170.95188888888887,340.2L175.02411111111113,340.2L179.09633333333335,340.2L183.16855555555554,340.2L187.24077777777777,340.2L191.31300000000002,340.2L194.89655555555555,340.2L195.3852222222222,335.08168413818055L199.45744444444446,333.4286435447329L203.52966666666669,332.8947297333822L207.60188888888888,332.72227748150067L211.67411111111113,332.66657560332396L215.74633333333333,332.64858391745315L219.81855555555555,332.6427726050848L223.8907777777778,332.64089555141607L226.98566666666665,332.64028926310465L227.963,327.5219734244878L232.03522222222222,325.8687574153276L236.10744444444447,325.33476864506923L240.17966666666666,325.16229027234886L244.25188888888886,325.1065797579678L248.3241111111111,325.0885852618235L252.39633333333333,325.08277303956896L256.46855555555555,325.08089569178077L259.0747777777778,325.0802893084452L260.5407777777778,319.9619734466275L264.613,318.30875742326066L268.68522222222225,317.7747686477132L272.75744444444445,317.60229027321134L276.82966666666664,317.5465797582473L280.9018888888889,317.52858526191386L284.9741111111111,317.5227730395982L289.04633333333334,317.5208956917902L291.1638888888889,317.52028930844824L293.1185555555556,312.40197344662874L297.1907777777778,310.7487574232611L301.263,310.2147686477133L305.3352222222222,310.0422902732114L309.4074444444444,309.9865797582473L313.4796666666667,309.96858526191386L317.55188888888887,309.9627730395982L321.6241111111111,309.9608956917902L323.253,309.96028930844824L325.69633333333337,304.8419734466288L329.76855555555557,303.1887574232611L333.84077777777776,302.65476864771335L337.913,302.4822902732114L341.9852222222222,302.42657975824727L346.05744444444446,302.40858526191386L350.12966666666665,302.4027730395982L354.2018888888889,302.4008956917902L355.3421111111111,302.40028930844824L358.2741111111111,297.28197344662874L362.34633333333335,295.6287574232611L366.41855555555554,295.0947686477133L370.4907777777778,294.9222902732114L374.563,294.86657975824727L378.63522222222224,294.84858526191385L382.70744444444443,294.84277303959817L386.7796666666666,294.84089569179025L387.43122222222223,294.84028930844823L390.85188888888894,289.7219734466288L394.92411111111113,288.0687574232611L398.9963333333333,287.53476864771335L403.0685555555555,287.3622902732114L407.14077777777777,287.30657975824727L411.213,287.28858526191385L415.2852222222223,287.28277303959817L419.35744444444447,287.2808956917902L419.5203333333333,287.28028930844823L423.42966666666666,282.16197344662874L427.50188888888886,280.5087574232611L431.57411111111105,279.9747686477133L435.64633333333336,279.8022902732114L439.71855555555555,279.7465797582473L443.7907777777778,279.72858526191385L447.863,279.72277303959817L451.6094444444445,279.72089569179025L451.9352222222222,274.6021693084482L456.0074444444444,272.9488206866288L460.0796666666667,272.4147890817811L464.1518888888889,272.2422968734153L468.2241111111111,272.18658189011313L472.29633333333334,272.16858595050655L476.36855555555553,272.1627732620136L480.44077777777784,272.1608957636304L483.6985555555555,272.1602893316526L484.51300000000003,267.04197345412376L488.5852222222222,265.388757425682L492.6574444444444,264.8547686484953L496.7296666666667,264.682290273464L500.80188888888887,264.62657975832883L504.8741111111111,264.6085852619402L508.94633333333337,264.6027730396067L513.0185555555555,264.60089569179297L515.7876666666666,264.6002893084491L517.0907777777778,259.48197344662907L521.163,257.8287574232612L525.2352222222222,257.29476864771334L529.3074444444445,257.12229027321143L533.3796666666667,257.06657975824726L537.4518888888889,257.0485852619139L541.5241111111111,257.04277303959816L545.5963333333333,257.0408956917902L547.8767777777778,257.0402893084482L549.6685555555556,251.92197344662878L553.7407777777778,250.2687574232611L557.813,249.7347686477133L561.8852222222222,249.56229027321137L565.9574444444444,249.50657975824726L570.0296666666667,249.48858526191387L574.1018888888889,249.48277303959816L578.1741111111111,249.4808956917902L579.9658888888889,249.48028930844825L582.2463333333334,244.36197344662878L586.3185555555556,242.7087574232611L590.3907777777778,242.17476864771334L594.4630000000001,242.00229027321143L598.5352222222223,241.9465797582473L602.6074444444445,241.9285852619139L606.6796666666667,241.92277303959818L610.7518888888889,241.9208956917902L612.055,241.92028930844822L614.824111111111,236.80197344662878L618.8963333333334,235.1487574232611L622.9685555555556,234.61476864771333L627.0407777777777,234.4422902732114L631.1129999999999,234.38657975824728L635.1852222222223,234.36858526191386L639.2574444444444,234.36277303959818L643.3296666666666,234.36089569179018L644.1441111111111,234.3602893084482L647.401888888889,229.24197344662878L651.4741111111111,227.5887574232611L655.5463333333333,227.0547686477133L659.6185555555555,226.88229027321137L663.6907777777778,226.82657975824725L667.763,226.80858526191386L671.8352222222222,226.80277303959815L675.9074444444444,226.80089569179023L676.2332222222223,226.80028930844824L679.9796666666666,221.68197344662877L684.0518888888888,220.02875742326108L688.1241111111111,219.49476864771333L692.1963333333333,219.32229027321137L696.2685555555555,219.26657975824727L700.3407777777778,219.24858526191386L704.413,219.24277303959818L708.3223333333334,219.2408956917902L708.4852222222222,214.12216930844824L712.5574444444445,212.46882068662876L716.6296666666667,211.93478908178108L720.7018888888889,211.7622968734153L724.7741111111111,211.70658189011314L728.8463333333333,211.68858595050654L732.9185555555556,211.68277326201363L736.9907777777777,211.6808957636304L740.4114444444444,211.6802893316526L741.0629999999999,206.5619734541238L745.1352222222223,204.90875742568198L749.2074444444445,204.37476864849526L753.2796666666667,204.20229027346394L757.3518888888889,204.14657975832887L761.4241111111111,204.1285852619402L765.4963333333334,204.12277303960667L769.5685555555556,204.12089569179295L772.5005555555556,204.12028930844912L773.6407777777778,199.00197344662905L777.713,197.34875742326116L781.7852222222222,196.81476864771335L785.8574444444444,196.64229027321142L789.9296666666668,196.58657975824727L794.001888888889,196.56858526191385L798.0741111111112,196.56277303959817L802.1463333333334,196.5608956917902L804.5896666666666,196.56028930844823L806.2185555555556,191.44197344662877L810.2907777777777,189.7887574232611L814.3629999999999,189.25476864771332L818.4352222222223,189.08229027321138L822.5074444444444,189.02657975824727L826.5796666666666,189.00858526191388L830.6518888888888,189.00277303959817L834.7241111111111,189.00089569179022L836.6787777777778,189.00028930844823L838.7963333333335,183.88197344662876L842.8685555555556,182.2287574232611L846.9407777777778,181.69476864771335L851.013,181.52229027321138L855.0852222222222,181.46657975824726L859.1574444444444,181.44858526191385L863.2296666666666,181.44277303959817L867.3018888888888,181.4408956917902L868.7678888888888,181.44028930844823L871.374111111111,176.32197344662876L875.4463333333333,174.6687574232611L879.5185555555555,174.13476864771334L883.5907777777778,173.96229027321138L887.663,173.90657975824726L891.7352222222223,173.88858526191385L895.8074444444445,173.88277303959816L899.8796666666667,173.8808956917902L900.8570000000001,173.8802893084482L903.9518888888889,168.7619734466288L908.0241111111111,167.10875742326107L912.0963333333333,166.5747686477133L916.1685555555555,166.40229027321138L920.2407777777777,166.34657975824726L924.3129999999999,166.32858526191384L928.3852222222223,166.32277303959816L932.4574444444445,166.32089569179018L932.9461111111111,166.3202893084482L936.5296666666667,161.20197344662878L940.6018888888889,159.54875742326112L944.6741111111111,159.0147686477133L948.7463333333334,158.84229027321138L952.8185555555556,158.78657975824729L956.8907777777778,158.76858526191384L960.963,158.7627730395982L965.0352222222222,158.7608956917902L965.0352222222222,158.76028930844825L969.1074444444444,153.64197344662878L973.1796666666668,151.98875742326112L977.251888888889,151.4547686477133L981.3241111111112,151.2822902732114L985.3963333333334,151.22657975824728L989.4685555555556,151.20858526191387L993.5407777777777,151.20277303959818L997.1243333333334,151.2008956917902L997.6129999999999,146.08216930844824L1001.6852222222223,144.4288206866288L1005.7574444444444,143.89478908178106L1009.8296666666666,143.72229687341527L1013.9018888888888,143.66658189011315L1017.9741111111111,143.64858595050652L1022.0463333333335,143.64277326201363L1026.1185555555555,143.6408957636304L1029.2134444444443,143.6402893316526L1030.1907777777778,138.5219734541238L1034.263,136.86875742568196L1038.3352222222222,136.3347686484953L1042.4074444444445,136.16229027346398L1046.4796666666666,136.10657975832885L1050.551888888889,136.0885852619402L1054.624111111111,136.08277303960668L1058.6963333333333,136.08089569179296L1061.3025555555555,136.0802893084491L1062.7685555555554,130.96197344662906L1066.840777777778,129.30875742326114L1070.913,128.77476864771333L1074.9852222222223,128.60229027321137L1079.0574444444444,128.54657975824725L1083.1296666666667,128.5285852619138L1087.2018888888888,128.52277303959815L1091.274111111111,128.52089569179014L1093.3916666666667,128.5202893084482L1095.3463333333334,123.40197344662872L1099.4185555555555,121.74875742326105L1103.4907777777778,121.2147686477133L1107.5629999999999,121.04229027321139L1111.6352222222222,120.98657975824727L1115.7074444444445,120.96858526191386L1119.7796666666668,120.96277303959818L1123.8518888888889,120.96089569179014L1125.4807777777778,120.96028930844818L1127.9241111111112,115.84197344662869L1131.9963333333333,114.18875742326105L1136.0685555555556,113.6547686477133L1140.1407777777777,113.48229027321139L1144.213,113.42657975824727L1148.2852222222223,113.40858526191386L1152.3574444444444,113.40277303959817L1156.4296666666667,113.4008956917902L1157.569888888889,113.40028930844818L1160.501888888889,108.2819734466288L1164.574111111111,106.6287574232611L1168.6463333333334,106.09476864771335L1172.7185555555557,105.92229027321139L1176.7907777777777,105.86657975824721L1180.863,105.84858526191385L1184.9352222222221,105.84277303959811L1189.0074444444444,105.8408956917902L1189.659,105.84028930844818L1193.0796666666665,100.7219734466288L1197.1518888888888,99.0687574232611L1201.2241111111111,98.53476864771335L1205.2963333333335,98.36229027321139L1209.3685555555555,98.30657975824721L1213.4407777777778,98.28858526191385L1217.513,98.28277303959811L1221.5852222222222,98.28089569179019L1221.748111111111,98.28028930844818L1225.6574444444445,93.16197344662879L1229.7296666666666,91.5087574232611L1233.801888888889,90.97476864771335L1237.874111111111,90.80229027321138L1241.9463333333333,90.74657975824721L1246.0185555555554,90.72858526191385L1250.090777777778,90.72277303959811L1253.8372222222222,90.72089569179013L1254.163,85.6021693084482L1258.2352222222223,83.94882068662878L1262.3074444444444,83.41478908178112L1266.3796666666667,83.24229687341528L1270.4518888888888,83.18658189011308L1274.524111111111,83.16858595050655L1278.5963333333334,83.16277326201362L1282.6685555555555,83.16089576363038L1285.9263333333333,83.16028933165262L1286.7407777777778,78.04197345412376L1290.8129999999999,76.38875742568194L1294.8852222222222,75.85476864849522L1298.9574444444445,75.68229027346399L1303.0296666666668,75.62657975832883L1307.1018888888889,75.60858526194022L1311.1741111111112,75.60277303960669L1315.2463333333333,75.60089569179297L1318.0154444444445,75.60028930844913" style="fill: none;" fill="none"></path></g><g><path stroke="rgb(0, 119, 187)" stroke-width="2px" d="M166.87966666666665,340.2L170.95188888888887,340.2L175.02411111111113,340.2L179.09633333333335,340.2L183.16855555555554,340.2L187.24077777777777,340.2L191.31300000000002,340.2L194.89655555555555,340.2L195.3852222222222,335.08168413818055L199.45744444444446,333.4286435447329L203.52966666666669,332.8947297333822L207.60188888888888,332.72227748150067L211.67411111111113,332.66657560332396L215.74633333333333,332.64858391745315L219.81855555555555,332.6427726050848L223.8907777777778,332.64089555141607L226.98566666666665,332.64028926310465L227.963,327.5219734244878L232.03522222222222,325.8687574153276L236.10744444444447,325.33476864506923L240.17966666666666,325.16229027234886L244.25188888888886,325.1065797579678L248.3241111111111,325.0885852618235L252.39633333333333,325.08277303956896L256.46855555555555,325.08089569178077L259.0747777777778,325.0802893084452L260.5407777777778,319.9619734466275L264.613,318.30875742326066L268.68522222222225,317.7747686477132L272.75744444444445,317.60229027321134L276.82966666666664,317.5465797582473L280.9018888888889,317.52858526191386L284.9741111111111,317.5227730395982L289.04633333333334,317.5208956917902L291.1638888888889,317.52028930844824L293.1185555555556,312.40197344662874L297.1907777777778,310.7487574232611L301.263,310.2147686477133L305.3352222222222,310.0422902732114L309.4074444444444,309.9865797582473L313.4796666666667,309.96858526191386L317.55188888888887,309.9627730395982L321.6241111111111,309.9608956917902L323.253,309.96028930844824L325.69633333333337,304.8419734466288L329.76855555555557,303.1887574232611L333.84077777777776,302.65476864771335L337.913,302.4822902732114L341.9852222222222,302.42657975824727L346.05744444444446,302.40858526191386L350.12966666666665,302.4027730395982L354.2018888888889,302.4008956917902L355.3421111111111,302.40028930844824L358.2741111111111,297.28197344662874L362.34633333333335,295.6287574232611L366.41855555555554,295.0947686477133L370.4907777777778,294.9222902732114L374.563,294.86657975824727L378.63522222222224,294.84858526191385L382.70744444444443,294.84277303959817L386.7796666666666,294.84089569179025L387.43122222222223,294.84028930844823L390.85188888888894,289.7219734466288L394.92411111111113,288.0687574232611L398.9963333333333,287.53476864771335L403.0685555555555,287.3622902732114L407.14077777777777,287.30657975824727L411.213,287.28858526191385L415.2852222222223,287.28277303959817L419.35744444444447,287.2808956917902L419.5203333333333,287.28028930844823L423.42966666666666,282.16197344662874L427.50188888888886,280.5087574232611L431.57411111111105,279.9747686477133L435.64633333333336,279.8022902732114L439.71855555555555,279.7465797582473L443.7907777777778,279.72858526191385L447.863,279.72277303959817L451.6094444444445,279.72089569179025L451.9352222222222,274.6021693084482L456.0074444444444,272.9488206866288L460.0796666666667,272.4147890817811L464.1518888888889,272.2422968734153L468.2241111111111,272.18658189011313L472.29633333333334,272.16858595050655L476.36855555555553,272.1627732620136L480.44077777777784,272.1608957636304L483.6985555555555,272.1602893316526L484.51300000000003,267.04197345412376L488.5852222222222,265.388757425682L492.6574444444444,264.8547686484953L496.7296666666667,264.682290273464L500.80188888888887,264.62657975832883L504.8741111111111,264.6085852619402L508.94633333333337,264.6027730396067L513.0185555555555,264.60089569179297L515.7876666666666,264.6002893084491L517.0907777777778,259.48197344662907L521.163,257.8287574232612L525.2352222222222,257.29476864771334L529.3074444444445,257.12229027321143L533.3796666666667,257.06657975824726L537.4518888888889,257.0485852619139L541.5241111111111,257.04277303959816L545.5963333333333,257.0408956917902L547.8767777777778,257.0402893084482L549.6685555555556,251.92197344662878L553.7407777777778,250.2687574232611L557.813,249.7347686477133L561.8852222222222,249.56229027321137L565.9574444444444,249.50657975824726L570.0296666666667,249.48858526191387L574.1018888888889,249.48277303959816L578.1741111111111,249.4808956917902L579.9658888888889,249.48028930844825L582.2463333333334,244.36197344662878L586.3185555555556,242.7087574232611L590.3907777777778,242.17476864771334L594.4630000000001,242.00229027321143L598.5352222222223,241.9465797582473L602.6074444444445,241.9285852619139L606.6796666666667,241.92277303959818L610.7518888888889,241.9208956917902L612.055,241.92028930844822L614.824111111111,236.80197344662878L618.8963333333334,235.1487574232611L622.9685555555556,234.61476864771333L627.0407777777777,234.4422902732114L631.1129999999999,234.38657975824728L635.1852222222223,234.36858526191386L639.2574444444444,234.36277303959818L643.3296666666666,234.36089569179018L644.1441111111111,234.3602893084482L647.401888888889,229.24197344662878L651.4741111111111,227.5887574232611L655.5463333333333,227.0547686477133L659.6185555555555,226.88229027321137L663.6907777777778,226.82657975824725L667.763,226.80858526191386L671.8352222222222,226.80277303959815L675.9074444444444,226.80089569179023L676.2332222222223,226.80028930844824L679.9796666666666,221.68197344662877L684.0518888888888,220.02875742326108L688.1241111111111,219.49476864771333L692.1963333333333,219.32229027321137L696.2685555555555,219.26657975824727L700.3407777777778,219.24858526191386L704.413,219.24277303959818L708.3223333333334,219.2408956917902L708.4852222222222,214.12216930844824L712.5574444444445,212.46882068662876L716.6296666666667,211.93478908178108L720.7018888888889,211.7622968734153L724.7741111111111,211.70658189011314L728.8463333333333,211.68858595050654L732.9185555555556,211.68277326201363L736.9907777777777,211.6808957636304L740.4114444444444,211.6802893316526L741.0629999999999,206.5619734541238L745.1352222222223,204.90875742568198L749.2074444444445,204.37476864849526L753.2796666666667,204.20229027346394L757.3518888888889,204.14657975832887L761.4241111111111,204.1285852619402L765.4963333333334,204.12277303960667L769.5685555555556,204.12089569179295L772.5005555555556,204.12028930844912L773.6407777777778,199.00197344662905L777.713,197.34875742326116L781.7852222222222,196.81476864771335L785.8574444444444,196.64229027321142L789.9296666666668,196.58657975824727L794.001888888889,196.56858526191385L798.0741111111112,196.56277303959817L802.1463333333334,196.5608956917902L804.5896666666666,196.56028930844823L806.2185555555556,191.44197344662877L810.2907777777777,189.7887574232611L814.3629999999999,189.25476864771332L818.4352222222223,189.08229027321138L822.5074444444444,189.02657975824727L826.5796666666666,189.00858526191388L830.6518888888888,189.00277303959817L834.7241111111111,189.00089569179022L836.6787777777778,189.00028930844823L838.7963333333335,183.88197344662876L842.8685555555556,182.2287574232611L846.9407777777778,181.69476864771335L851.013,181.52229027321138L855.0852222222222,181.46657975824726L859.1574444444444,181.44858526191385L863.2296666666666,181.44277303959817L867.3018888888888,181.4408956917902L868.7678888888888,181.44028930844823L871.374111111111,176.32197344662876L875.4463333333333,174.6687574232611L879.5185555555555,174.13476864771334L883.5907777777778,173.96229027321138L887.663,173.90657975824726L891.7352222222223,173.88858526191385L895.8074444444445,173.88277303959816L899.8796666666667,173.8808956917902L900.8570000000001,173.8802893084482L903.9518888888889,168.7619734466288L908.0241111111111,167.10875742326107L912.0963333333333,166.5747686477133L916.1685555555555,166.40229027321138L920.2407777777777,166.34657975824726L924.3129999999999,166.32858526191384L928.3852222222223,166.32277303959816L932.4574444444445,166.32089569179018L932.9461111111111,166.3202893084482L936.5296666666667,161.20197344662878L940.6018888888889,159.54875742326112L944.6741111111111,159.0147686477133L948.7463333333334,158.84229027321138L952.8185555555556,158.78657975824729L956.8907777777778,158.76858526191384L960.963,158.7627730395982L965.0352222222222,158.7608956917902L965.0352222222222,158.76028930844825L969.1074444444444,153.64197344662878L973.1796666666668,151.98875742326112L977.251888888889,151.4547686477133L981.3241111111112,151.2822902732114L985.3963333333334,151.22657975824728L989.4685555555556,151.20858526191387L993.5407777777777,151.20277303959818L997.1243333333334,151.2008956917902L997.6129999999999,146.08216930844824L1001.6852222222223,144.4288206866288L1005.7574444444444,143.89478908178106L1009.8296666666666,143.72229687341527L1013.9018888888888,143.66658189011315L1017.9741111111111,143.64858595050652L1022.0463333333335,143.64277326201363L1026.1185555555555,143.6408957636304L1029.2134444444443,143.6402893316526L1030.1907777777778,138.5219734541238L1034.263,136.86875742568196L1038.3352222222222,136.3347686484953L1042.4074444444445,136.16229027346398L1046.4796666666666,136.10657975832885L1050.551888888889,136.0885852619402L1054.624111111111,136.08277303960668L1058.6963333333333,136.08089569179296L1061.3025555555555,136.0802893084491L1062.7685555555554,130.96197344662906L1066.840777777778,129.30875742326114L1070.913,128.77476864771333L1074.9852222222223,128.60229027321137L1079.0574444444444,128.54657975824725L1083.1296666666667,128.5285852619138L1087.2018888888888,128.52277303959815L1091.274111111111,128.52089569179014L1093.3916666666667,128.5202893084482L1095.3463333333334,123.40197344662872L1099.4185555555555,121.74875742326105L1103.4907777777778,121.2147686477133L1107.5629999999999,121.04229027321139L1111.6352222222222,120.98657975824727L1115.7074444444445,120.96858526191386L1119.7796666666668,120.96277303959818L1123.8518888888889,120.96089569179014L1125.4807777777778,120.96028930844818L1127.9241111111112,115.84197344662869L1131.9963333333333,114.18875742326105L1136.0685555555556,113.6547686477133L1140.1407777777777,113.48229027321139L1144.213,113.42657975824727L1148.2852222222223,113.40858526191386L1152.3574444444444,113.40277303959817L1156.4296666666667,113.4008956917902L1157.569888888889,113.40028930844818L1160.501888888889,108.2819734466288L1164.574111111111,106.6287574232611L1168.6463333333334,106.09476864771335L1172.7185555555557,105.92229027321139L1176.7907777777777,105.86657975824721L1180.863,105.84858526191385L1184.9352222222221,105.84277303959811L1189.0074444444444,105.8408956917902L1189.659,105.84028930844818L1193.0796666666665,100.7219734466288L1197.1518888888888,99.0687574232611L1201.2241111111111,98.53476864771335L1205.2963333333335,98.36229027321139L1209.3685555555555,98.30657975824721L1213.4407777777778,98.28858526191385L1217.513,98.28277303959811L1221.5852222222222,98.28089569179019L1221.748111111111,98.28028930844818L1225.6574444444445,93.16197344662879L1229.7296666666666,91.5087574232611L1233.801888888889,90.97476864771335L1237.874111111111,90.80229027321138L1241.9463333333333,90.74657975824721L1246.0185555555554,90.72858526191385L1250.090777777778,90.72277303959811L1253.8372222222222,90.72089569179013L1254.163,85.6021693084482L1258.2352222222223,83.94882068662878L1262.3074444444444,83.41478908178112L1266.3796666666667,83.24229687341528L1270.4518888888888,83.18658189011308L1274.524111111111,83.16858595050655L1278.5963333333334,83.16277326201362L1282.6685555555555,83.16089576363038L1285.9263333333333,83.16028933165262L1286.7407777777778,78.04197345412376L1290.8129999999999,76.38875742568194L1294.8852222222222,75.85476864849522L1298.9574444444445,75.68229027346399L1303.0296666666668,75.62657975832883L1307.1018888888889,75.60858526194022L1311.1741111111112,75.60277303960669L1315.2463333333333,75.60089569179297L1318.0154444444445,75.60028930844913L1319.3185555555556,70.48197344662901L1323.3907777777777,68.82875742326115L1327.463,68.29476864771334L1331.5352222222223,68.12229027321138L1335.6074444444444,68.06657975824726L1339.6796666666667,68.0485852619139L1343.751888888889,68.04277303959822L1347.824111111111,68.04089569179024L1350.1045555555556,68.04028930844822L1351.8963333333334,62.92197344662878L1355.9685555555557,61.268757423261036L1360.0407777777777,60.73476864771334L1364.113,60.562290273211374L1368.1852222222221,60.506579758247256L1372.2574444444444,60.48858526191384L1376.3296666666665,60.48277303959816L1380.4018888888888,60.48089569179018L1382.1936666666666,60.48028930844822L1384.4741111111111,55.361973446628724L1388.5463333333335,53.708757423261034" style="fill: none;" fill="none"></path></g><g><path stroke="rgb(255, 112, 67)" stroke-width="2px" d="M166.87966666666665,340.2L170.95188888888887,340.2L175.02411111111113,340.2L179.09633333333335,340.2L183.16855555555554,340.2L187.24077777777777,340.2L191.31300000000002,340.2L194.89655555555555,340.2L195.3852222222222,335.08168413818055L199.45744444444446,333.4286435447329L203.52966666666669,332.8947297333822L207.60188888888888,332.72227748150067L211.67411111111113,332.66657560332396L215.74633333333333,332.64858391745315L219.81855555555555,332.6427726050848L223.8907777777778,332.64089555141607L226.98566666666665,332.64028926310465L227.963,327.5219734244878L232.03522222222222,325.8687574153276L236.10744444444447,325.33476864506923L240.17966666666666,325.16229027234886L244.25188888888886,325.1065797579678L248.3241111111111,325.0885852618235L252.39633333333333,325.08277303956896L256.46855555555555,325.08089569178077L259.0747777777778,325.0802893084452L260.5407777777778,319.9619734466275L264.613,318.30875742326066L268.68522222222225,317.7747686477132L272.75744444444445,317.60229027321134L276.82966666666664,317.5465797582473L280.9018888888889,317.52858526191386L284.9741111111111,317.5227730395982L289.04633333333334,317.5208956917902L291.1638888888889,317.52028930844824L293.1185555555556,312.40197344662874L297.1907777777778,310.7487574232611L301.263,310.2147686477133L305.3352222222222,310.0422902732114L309.4074444444444,309.9865797582473L313.4796666666667,309.96858526191386L317.55188888888887,309.9627730395982L321.6241111111111,309.9608956917902L323.253,309.96028930844824L325.69633333333337,304.8419734466288L329.76855555555557,303.1887574232611L333.84077777777776,302.65476864771335L337.913,302.4822902732114L341.9852222222222,302.42657975824727L346.05744444444446,302.40858526191386L350.12966666666665,302.4027730395982L354.2018888888889,302.4008956917902L355.3421111111111,302.40028930844824L358.2741111111111,297.28197344662874L362.34633333333335,295.6287574232611L366.41855555555554,295.0947686477133L370.4907777777778,294.9222902732114L374.563,294.86657975824727L378.63522222222224,294.84858526191385L382.70744444444443,294.84277303959817L386.7796666666666,294.84089569179025L387.43122222222223,294.84028930844823L390.85188888888894,289.7219734466288L394.92411111111113,288.0687574232611L398.9963333333333,287.53476864771335L403.0685555555555,287.3622902732114L407.14077777777777,287.30657975824727L411.213,287.28858526191385L415.2852222222223,287.28277303959817L419.35744444444447,287.2808956917902L419.5203333333333,287.28028930844823L423.42966666666666,282.16197344662874L427.50188888888886,280.5087574232611L431.57411111111105,279.9747686477133L435.64633333333336,279.8022902732114L439.71855555555555,279.7465797582473L443.7907777777778,279.72858526191385L447.863,279.72277303959817L451.6094444444445,279.72089569179025L451.9352222222222,274.6021693084482L456.0074444444444,272.9488206866288L460.0796666666667,272.4147890817811L464.1518888888889,272.2422968734153L468.2241111111111,272.18658189011313L472.29633333333334,272.16858595050655L476.36855555555553,272.1627732620136L480.44077777777784,272.1608957636304L483.6985555555555,272.1602893316526L484.51300000000003,267.04197345412376L488.5852222222222,265.388757425682L492.6574444444444,264.8547686484953L496.7296666666667,264.682290273464L500.80188888888887,264.62657975832883L504.8741111111111,264.6085852619402L508.94633333333337,264.6027730396067L513.0185555555555,264.60089569179297L515.7876666666666,264.6002893084491L517.0907777777778,259.48197344662907L521.163,257.8287574232612L525.2352222222222,257.29476864771334L529.3074444444445,257.12229027321143L533.3796666666667,257.06657975824726L537.4518888888889,257.0485852619139L541.5241111111111,257.04277303959816L545.5963333333333,257.0408956917902L547.8767777777778,257.0402893084482L549.6685555555556,251.92197344662878L553.7407777777778,250.2687574232611L557.813,249.7347686477133L561.8852222222222,249.56229027321137L565.9574444444444,249.50657975824726L570.0296666666667,249.48858526191387L574.1018888888889,249.48277303959816L578.1741111111111,249.4808956917902L579.9658888888889,249.48028930844825L582.2463333333334,244.36197344662878L586.3185555555556,242.7087574232611L590.3907777777778,242.17476864771334L594.4630000000001,242.00229027321143L598.5352222222223,241.9465797582473L602.6074444444445,241.9285852619139L606.6796666666667,241.92277303959818L610.7518888888889,241.9208956917902L612.055,241.92028930844822L614.824111111111,236.80197344662878L618.8963333333334,235.1487574232611L622.9685555555556,234.61476864771333L627.0407777777777,234.4422902732114L631.1129999999999,234.38657975824728L635.1852222222223,234.36858526191386L639.2574444444444,234.36277303959818L643.3296666666666,234.36089569179018L644.1441111111111,234.3602893084482L647.401888888889,229.24197344662878L651.4741111111111,227.5887574232611L655.5463333333333,227.0547686477133L659.6185555555555,226.88229027321137L663.6907777777778,226.82657975824725L667.763,226.80858526191386L671.8352222222222,226.80277303959815L675.9074444444444,226.80089569179023L676.2332222222223,226.80028930844824L679.9796666666666,221.68197344662877L684.0518888888888,220.02875742326108L688.1241111111111,219.49476864771333L692.1963333333333,219.32229027321137L696.2685555555555,219.26657975824727L700.3407777777778,219.24858526191386L704.413,219.24277303959818L708.3223333333334,219.2408956917902L708.4852222222222,214.12216930844824L712.5574444444445,212.46882068662876L716.6296666666667,211.93478908178108L720.7018888888889,211.7622968734153L724.7741111111111,211.70658189011314L728.8463333333333,211.68858595050654L732.9185555555556,211.68277326201363L736.9907777777777,211.6808957636304L740.4114444444444,211.6802893316526L741.0629999999999,206.5619734541238L745.1352222222223,204.90875742568198L749.2074444444445,204.37476864849526L753.2796666666667,204.20229027346394L757.3518888888889,204.14657975832887L761.4241111111111,204.1285852619402L765.4963333333334,204.12277303960667L769.5685555555556,204.12089569179295L772.5005555555556,204.12028930844912L773.6407777777778,199.00197344662905L777.713,197.34875742326116L781.7852222222222,196.81476864771335L785.8574444444444,196.64229027321142L789.9296666666668,196.58657975824727L794.001888888889,196.56858526191385L798.0741111111112,196.56277303959817L802.1463333333334,196.5608956917902L804.5896666666666,196.56028930844823L806.2185555555556,191.44197344662877L810.2907777777777,189.7887574232611L814.3629999999999,189.25476864771332L818.4352222222223,189.08229027321138L822.5074444444444,189.02657975824727L826.5796666666666,189.00858526191388L830.6518888888888,189.00277303959817L834.7241111111111,189.00089569179022L836.6787777777778,189.00028930844823L838.7963333333335,183.88197344662876L842.8685555555556,182.2287574232611L846.9407777777778,181.69476864771335L851.013,181.52229027321138L855.0852222222222,181.46657975824726L859.1574444444444,181.44858526191385L863.2296666666666,181.44277303959817L867.3018888888888,181.4408956917902L868.7678888888888,181.44028930844823L871.374111111111,176.32197344662876L875.4463333333333,174.6687574232611L879.5185555555555,174.13476864771334L883.5907777777778,173.96229027321138L887.663,173.90657975824726L891.7352222222223,173.88858526191385L895.8074444444445,173.88277303959816L899.8796666666667,173.8808956917902L900.8570000000001,173.8802893084482L903.9518888888889,168.7619734466288L908.0241111111111,167.10875742326107L912.0963333333333,166.5747686477133L916.1685555555555,166.40229027321138L920.2407777777777,166.34657975824726L924.3129999999999,166.32858526191384L928.3852222222223,166.32277303959816L932.4574444444445,166.32089569179018L932.9461111111111,166.3202893084482L936.5296666666667,161.20197344662878L940.6018888888889,159.54875742326112L944.6741111111111,159.0147686477133L948.7463333333334,158.84229027321138L952.8185555555556,158.78657975824729L956.8907777777778,158.76858526191384L960.963,158.7627730395982L965.0352222222222,158.7608956917902L965.0352222222222,158.76028930844825L969.1074444444444,153.64197344662878L973.1796666666668,151.98875742326112L977.251888888889,151.4547686477133L981.3241111111112,151.2822902732114L985.3963333333334,151.22657975824728L989.4685555555556,151.20858526191387L993.5407777777777,151.20277303959818L997.1243333333334,151.2008956917902L997.6129999999999,146.08216930844824L1001.6852222222223,144.4288206866288L1005.7574444444444,143.89478908178106L1009.8296666666666,143.72229687341527L1013.9018888888888,143.66658189011315L1017.9741111111111,143.64858595050652L1022.0463333333335,143.64277326201363L1026.1185555555555,143.6408957636304L1029.2134444444443,143.6402893316526L1030.1907777777778,138.5219734541238L1034.263,136.86875742568196L1038.3352222222222,136.3347686484953L1042.4074444444445,136.16229027346398L1046.4796666666666,136.10657975832885L1050.551888888889,136.0885852619402L1054.624111111111,136.08277303960668L1058.6963333333333,136.08089569179296L1061.3025555555555,136.0802893084491L1062.7685555555554,130.96197344662906L1066.840777777778,129.30875742326114L1070.913,128.77476864771333L1074.9852222222223,128.60229027321137L1079.0574444444444,128.54657975824725L1083.1296666666667,128.5285852619138L1087.2018888888888,128.52277303959815L1091.274111111111,128.52089569179014L1093.3916666666667,128.5202893084482L1095.3463333333334,123.40197344662872L1099.4185555555555,121.74875742326105L1103.4907777777778,121.2147686477133L1107.5629999999999,121.04229027321139L1111.6352222222222,120.98657975824727L1115.7074444444445,120.96858526191386L1119.7796666666668,120.96277303959818L1123.8518888888889,120.96089569179014L1125.4807777777778,120.96028930844818L1127.9241111111112,115.84197344662869L1131.9963333333333,114.18875742326105L1136.0685555555556,113.6547686477133L1140.1407777777777,113.48229027321139L1144.213,113.42657975824727L1148.2852222222223,113.40858526191386L1152.3574444444444,113.40277303959817L1156.4296666666667,113.4008956917902L1157.569888888889,113.40028930844818L1160.501888888889,108.2819734466288L1164.574111111111,106.6287574232611L1168.6463333333334,106.09476864771335L1172.7185555555557,105.92229027321139L1176.7907777777777,105.86657975824721L1180.863,105.84858526191385L1184.9352222222221,105.84277303959811L1189.0074444444444,105.8408956917902L1189.659,105.84028930844818L1193.0796666666665,100.7219734466288L1197.1518888888888,99.0687574232611L1201.2241111111111,98.53476864771335L1205.2963333333335,98.36229027321139L1209.3685555555555,98.30657975824721L1213.4407777777778,98.28858526191385L1217.513,98.28277303959811L1221.5852222222222,98.28089569179019L1221.748111111111,98.28028930844818L1225.6574444444445,93.16197344662879L1229.7296666666666,91.5087574232611L1233.801888888889,90.97476864771335L1237.874111111111,90.80229027321138L1241.9463333333333,90.74657975824721L1246.0185555555554,90.72858526191385L1250.090777777778,90.72277303959811L1253.8372222222222,90.72089569179013L1254.163,85.6021693084482L1258.2352222222223,83.94882068662878L1262.3074444444444,83.41478908178112L1266.3796666666667,83.24229687341528L1270.4518888888888,83.18658189011308L1274.524111111111,83.16858595050655L1278.5963333333334,83.16277326201362L1282.6685555555555,83.16089576363038L1285.9263333333333,83.16028933165262L1286.7407777777778,78.04197345412376L1290.8129999999999,76.38875742568194L1294.8852222222222,75.85476864849522L1298.9574444444445,75.68229027346399L1303.0296666666668,75.62657975832883L1307.1018888888889,75.60858526194022L1311.1741111111112,75.60277303960669L1315.2463333333333,75.60089569179297L1318.0154444444445,75.60028930844913L1319.3185555555556,70.48197344662901L1323.3907777777777,68.82875742326115L1327.463,68.29476864771334L1331.5352222222223,68.12229027321138L1335.6074444444444,68.06657975824726L1339.6796666666667,68.0485852619139L1343.751888888889,68.04277303959822L1347.824111111111,68.04089569179024L1350.1045555555556,68.04028930844822L1351.8963333333334,62.92197344662878L1355.9685555555557,61.268757423261036L1360.0407777777777,60.73476864771334L1364.113,60.562290273211374L1368.1852222222221,60.506579758247256L1372.2574444444444,60.48858526191384L1376.3296666666665,60.48277303959816L1380.4018888888888,60.48089569179018L1382.1936666666666,60.48028930844822" style="fill: none;" fill="none"></path></g></g></g></g><g opacity="0.2"><g><g><g><path stroke="rgb(204, 51, 17)" stroke-width="2px" d="M166.87966666666665,340.2L170.95188888888887,340.2L175.02411111111113,340.2L179.09633333333335,340.2L183.16855555555554,340.2L187.24077777777777,340.2L191.31300000000002,340.2L194.89655555555555,340.2L195.3852222222222,332.64L199.45744444444446,332.64L203.52966666666669,332.64L207.60188888888888,332.64L211.67411111111113,332.64L215.74633333333333,332.64L219.81855555555555,332.64L223.8907777777778,332.64L226.98566666666665,332.64L227.963,325.08L232.03522222222222,325.08L236.10744444444447,325.08L240.17966666666666,325.08L244.25188888888886,325.08L248.3241111111111,325.08L252.39633333333333,325.08L256.46855555555555,325.08L259.0747777777778,325.08L260.5407777777778,317.52L264.613,317.52L268.68522222222225,317.52L272.75744444444445,317.52L276.82966666666664,317.52L280.9018888888889,317.52L284.9741111111111,317.52L289.04633333333334,317.52L291.1638888888889,317.52L293.1185555555556,309.96000000000004L297.1907777777778,309.96000000000004L301.263,309.96000000000004L305.3352222222222,309.96000000000004L309.4074444444444,309.96000000000004L313.4796666666667,309.96000000000004L317.55188888888887,309.96000000000004L321.6241111111111,309.96000000000004L323.253,309.96000000000004L325.69633333333337,302.4L329.76855555555557,302.4L333.84077777777776,302.4L337.913,302.4L341.9852222222222,302.4L346.05744444444446,302.4L350.12966666666665,302.4L354.2018888888889,302.4L355.3421111111111,302.4L358.2741111111111,294.84000000000003L362.34633333333335,294.84000000000003L366.41855555555554,294.84000000000003L370.4907777777778,294.84000000000003L374.563,294.84000000000003L378.63522222222224,294.84000000000003L382.70744444444443,294.84000000000003L386.7796666666666,294.84000000000003L387.43122222222223,294.84000000000003L390.85188888888894,287.28L394.92411111111113,287.28L398.9963333333333,287.28L403.0685555555555,287.28L407.14077777777777,287.28L411.213,287.28L415.2852222222223,287.28L419.35744444444447,287.28L419.5203333333333,287.28L423.42966666666666,279.72L427.50188888888886,279.72L431.57411111111105,279.72L435.64633333333336,279.72L439.71855555555555,279.72L443.7907777777778,279.72L447.863,279.72L451.6094444444445,279.72L451.9352222222222,272.15999999999997L456.0074444444444,272.15999999999997L460.0796666666667,272.15999999999997L464.1518888888889,272.15999999999997L468.2241111111111,272.15999999999997L472.29633333333334,272.15999999999997L476.36855555555553,272.15999999999997L480.44077777777784,272.15999999999997L483.6985555555555,272.15999999999997L484.51300000000003,264.6L488.5852222222222,264.6L492.6574444444444,264.6L496.7296666666667,264.6L500.80188888888887,264.6L504.8741111111111,264.6L508.94633333333337,264.6L513.0185555555555,264.6L515.7876666666666,264.6L517.0907777777778,257.03999999999996L521.163,257.03999999999996L525.2352222222222,257.03999999999996L529.3074444444445,257.03999999999996L533.3796666666667,257.03999999999996L537.4518888888889,257.03999999999996L541.5241111111111,257.03999999999996L545.5963333333333,257.03999999999996L547.8767777777778,257.03999999999996L549.6685555555556,249.48L553.7407777777778,249.48L557.813,249.48L561.8852222222222,249.48L565.9574444444444,249.48L570.0296666666667,249.48L574.1018888888889,249.48L578.1741111111111,249.48L579.9658888888889,249.48L582.2463333333334,241.92000000000002L586.3185555555556,241.92000000000002L590.3907777777778,241.92000000000002L594.4630000000001,241.92000000000002L598.5352222222223,241.92000000000002L602.6074444444445,241.92000000000002L606.6796666666667,241.92000000000002L610.7518888888889,241.92000000000002L612.055,241.92000000000002L614.824111111111,234.35999999999999L618.8963333333334,234.35999999999999L622.9685555555556,234.35999999999999L627.0407777777777,234.35999999999999L631.1129999999999,234.35999999999999L635.1852222222223,234.35999999999999L639.2574444444444,234.35999999999999L643.3296666666666,234.35999999999999L644.1441111111111,234.35999999999999L647.401888888889,226.79999999999998L651.4741111111111,226.79999999999998L655.5463333333333,226.79999999999998L659.6185555555555,226.79999999999998L663.6907777777778,226.79999999999998L667.763,226.79999999999998L671.8352222222222,226.79999999999998L675.9074444444444,226.79999999999998L676.2332222222223,226.79999999999998L679.9796666666666,219.24L684.0518888888888,219.24L688.1241111111111,219.24L692.1963333333333,219.24L696.2685555555555,219.24L700.3407777777778,219.24L704.413,219.24L708.3223333333334,219.24L708.4852222222222,211.68L712.5574444444445,211.68L716.6296666666667,211.68L720.7018888888889,211.68L724.7741111111111,211.68L728.8463333333333,211.68L732.9185555555556,211.68L736.9907777777777,211.68L740.4114444444444,211.68L741.0629999999999,204.12L745.1352222222223,204.12L749.2074444444445,204.12L753.2796666666667,204.12L757.3518888888889,204.12L761.4241111111111,204.12L765.4963333333334,204.12L769.5685555555556,204.12L772.5005555555556,204.12L773.6407777777778,196.56L777.713,196.56L781.7852222222222,196.56L785.8574444444444,196.56L789.9296666666668,196.56L794.001888888889,196.56L798.0741111111112,196.56L802.1463333333334,196.56L804.5896666666666,196.56L806.2185555555556,189L810.2907777777777,189L814.3629999999999,189L818.4352222222223,189L822.5074444444444,189L826.5796666666666,189L830.6518888888888,189L834.7241111111111,189L836.6787777777778,189L838.7963333333335,181.44L842.8685555555556,181.44L846.9407777777778,181.44L851.013,181.44L855.0852222222222,181.44L859.1574444444444,181.44L863.2296666666666,181.44L867.3018888888888,181.44L868.7678888888888,181.44L871.374111111111,173.88L875.4463333333333,173.88L879.5185555555555,173.88L883.5907777777778,173.88L887.663,173.88L891.7352222222223,173.88L895.8074444444445,173.88L899.8796666666667,173.88L900.8570000000001,173.88L903.9518888888889,166.32L908.0241111111111,166.32L912.0963333333333,166.32L916.1685555555555,166.32L920.2407777777777,166.32L924.3129999999999,166.32L928.3852222222223,166.32L932.4574444444445,166.32L932.9461111111111,166.32L936.5296666666667,158.76000000000002L940.6018888888889,158.76000000000002L944.6741111111111,158.76000000000002L948.7463333333334,158.76000000000002L952.8185555555556,158.76000000000002L956.8907777777778,158.76000000000002L960.963,158.76000000000002L965.0352222222222,158.76000000000002L965.0352222222222,158.76000000000002L969.1074444444444,151.20000000000002L973.1796666666668,151.20000000000002L977.251888888889,151.20000000000002L981.3241111111112,151.20000000000002L985.3963333333334,151.20000000000002L989.4685555555556,151.20000000000002L993.5407777777777,151.20000000000002L997.1243333333334,151.20000000000002L997.6129999999999,143.64000000000001L1001.6852222222223,143.64000000000001L1005.7574444444444,143.64000000000001L1009.8296666666666,143.64000000000001L1013.9018888888888,143.64000000000001L1017.9741111111111,143.64000000000001L1022.0463333333335,143.64000000000001L1026.1185555555555,143.64000000000001L1029.2134444444443,143.64000000000001L1030.1907777777778,136.07999999999998L1034.263,136.07999999999998L1038.3352222222222,136.07999999999998L1042.4074444444445,136.07999999999998L1046.4796666666666,136.07999999999998L1050.551888888889,136.07999999999998L1054.624111111111,136.07999999999998L1058.6963333333333,136.07999999999998L1061.3025555555555,136.07999999999998L1062.7685555555554,128.51999999999998L1066.840777777778,128.51999999999998L1070.913,128.51999999999998L1074.9852222222223,128.51999999999998L1079.0574444444444,128.51999999999998L1083.1296666666667,128.51999999999998L1087.2018888888888,128.51999999999998L1091.274111111111,128.51999999999998L1093.3916666666667,128.51999999999998L1095.3463333333334,120.95999999999998L1099.4185555555555,120.95999999999998L1103.4907777777778,120.95999999999998L1107.5629999999999,120.95999999999998L1111.6352222222222,120.95999999999998L1115.7074444444445,120.95999999999998L1119.7796666666668,120.95999999999998L1123.8518888888889,120.95999999999998L1125.4807777777778,120.95999999999998L1127.9241111111112,113.40000000000003L1131.9963333333333,113.40000000000003L1136.0685555555556,113.40000000000003L1140.1407777777777,113.40000000000003L1144.213,113.40000000000003L1148.2852222222223,113.40000000000003L1152.3574444444444,113.40000000000003L1156.4296666666667,113.40000000000003L1157.569888888889,113.40000000000003L1160.501888888889,105.84000000000003L1164.574111111111,105.84000000000003L1168.6463333333334,105.84000000000003L1172.7185555555557,105.84000000000003L1176.7907777777777,105.84000000000003L1180.863,105.84000000000003L1184.9352222222221,105.84000000000003L1189.0074444444444,105.84000000000003L1189.659,105.84000000000003L1193.0796666666665,98.28000000000003L1197.1518888888888,98.28000000000003L1201.2241111111111,98.28000000000003L1205.2963333333335,98.28000000000003L1209.3685555555555,98.28000000000003L1213.4407777777778,98.28000000000003L1217.513,98.28000000000003L1221.5852222222222,98.28000000000003L1221.748111111111,98.28000000000003L1225.6574444444445,90.71999999999997L1229.7296666666666,90.71999999999997L1233.801888888889,90.71999999999997L1237.874111111111,90.71999999999997L1241.9463333333333,90.71999999999997L1246.0185555555554,90.71999999999997L1250.090777777778,90.71999999999997L1253.8372222222222,90.71999999999997L1254.163,83.15999999999997L1258.2352222222223,83.15999999999997L1262.3074444444444,83.15999999999997L1266.3796666666667,83.15999999999997L1270.4518888888888,83.15999999999997L1274.524111111111,83.15999999999997L1278.5963333333334,83.15999999999997L1282.6685555555555,83.15999999999997L1285.9263333333333,83.15999999999997L1286.7407777777778,75.59999999999997L1290.8129999999999,75.59999999999997L1294.8852222222222,75.59999999999997L1298.9574444444445,75.59999999999997L1303.0296666666668,75.59999999999997L1307.1018888888889,75.59999999999997L1311.1741111111112,75.59999999999997L1315.2463333333333,75.59999999999997L1318.0154444444445,75.59999999999997" style="fill: none;" fill="none"></path></g><g><path stroke="rgb(0, 119, 187)" stroke-width="2px" d="M166.87966666666665,340.2L170.95188888888887,340.2L175.02411111111113,340.2L179.09633333333335,340.2L183.16855555555554,340.2L187.24077777777777,340.2L191.31300000000002,340.2L194.89655555555555,340.2L195.3852222222222,332.64L199.45744444444446,332.64L203.52966666666669,332.64L207.60188888888888,332.64L211.67411111111113,332.64L215.74633333333333,332.64L219.81855555555555,332.64L223.8907777777778,332.64L226.98566666666665,332.64L227.963,325.08L232.03522222222222,325.08L236.10744444444447,325.08L240.17966666666666,325.08L244.25188888888886,325.08L248.3241111111111,325.08L252.39633333333333,325.08L256.46855555555555,325.08L259.0747777777778,325.08L260.5407777777778,317.52L264.613,317.52L268.68522222222225,317.52L272.75744444444445,317.52L276.82966666666664,317.52L280.9018888888889,317.52L284.9741111111111,317.52L289.04633333333334,317.52L291.1638888888889,317.52L293.1185555555556,309.96000000000004L297.1907777777778,309.96000000000004L301.263,309.96000000000004L305.3352222222222,309.96000000000004L309.4074444444444,309.96000000000004L313.4796666666667,309.96000000000004L317.55188888888887,309.96000000000004L321.6241111111111,309.96000000000004L323.253,309.96000000000004L325.69633333333337,302.4L329.76855555555557,302.4L333.84077777777776,302.4L337.913,302.4L341.9852222222222,302.4L346.05744444444446,302.4L350.12966666666665,302.4L354.2018888888889,302.4L355.3421111111111,302.4L358.2741111111111,294.84000000000003L362.34633333333335,294.84000000000003L366.41855555555554,294.84000000000003L370.4907777777778,294.84000000000003L374.563,294.84000000000003L378.63522222222224,294.84000000000003L382.70744444444443,294.84000000000003L386.7796666666666,294.84000000000003L387.43122222222223,294.84000000000003L390.85188888888894,287.28L394.92411111111113,287.28L398.9963333333333,287.28L403.0685555555555,287.28L407.14077777777777,287.28L411.213,287.28L415.2852222222223,287.28L419.35744444444447,287.28L419.5203333333333,287.28L423.42966666666666,279.72L427.50188888888886,279.72L431.57411111111105,279.72L435.64633333333336,279.72L439.71855555555555,279.72L443.7907777777778,279.72L447.863,279.72L451.6094444444445,279.72L451.9352222222222,272.15999999999997L456.0074444444444,272.15999999999997L460.0796666666667,272.15999999999997L464.1518888888889,272.15999999999997L468.2241111111111,272.15999999999997L472.29633333333334,272.15999999999997L476.36855555555553,272.15999999999997L480.44077777777784,272.15999999999997L483.6985555555555,272.15999999999997L484.51300000000003,264.6L488.5852222222222,264.6L492.6574444444444,264.6L496.7296666666667,264.6L500.80188888888887,264.6L504.8741111111111,264.6L508.94633333333337,264.6L513.0185555555555,264.6L515.7876666666666,264.6L517.0907777777778,257.03999999999996L521.163,257.03999999999996L525.2352222222222,257.03999999999996L529.3074444444445,257.03999999999996L533.3796666666667,257.03999999999996L537.4518888888889,257.03999999999996L541.5241111111111,257.03999999999996L545.5963333333333,257.03999999999996L547.8767777777778,257.03999999999996L549.6685555555556,249.48L553.7407777777778,249.48L557.813,249.48L561.8852222222222,249.48L565.9574444444444,249.48L570.0296666666667,249.48L574.1018888888889,249.48L578.1741111111111,249.48L579.9658888888889,249.48L582.2463333333334,241.92000000000002L586.3185555555556,241.92000000000002L590.3907777777778,241.92000000000002L594.4630000000001,241.92000000000002L598.5352222222223,241.92000000000002L602.6074444444445,241.92000000000002L606.6796666666667,241.92000000000002L610.7518888888889,241.92000000000002L612.055,241.92000000000002L614.824111111111,234.35999999999999L618.8963333333334,234.35999999999999L622.9685555555556,234.35999999999999L627.0407777777777,234.35999999999999L631.1129999999999,234.35999999999999L635.1852222222223,234.35999999999999L639.2574444444444,234.35999999999999L643.3296666666666,234.35999999999999L644.1441111111111,234.35999999999999L647.401888888889,226.79999999999998L651.4741111111111,226.79999999999998L655.5463333333333,226.79999999999998L659.6185555555555,226.79999999999998L663.6907777777778,226.79999999999998L667.763,226.79999999999998L671.8352222222222,226.79999999999998L675.9074444444444,226.79999999999998L676.2332222222223,226.79999999999998L679.9796666666666,219.24L684.0518888888888,219.24L688.1241111111111,219.24L692.1963333333333,219.24L696.2685555555555,219.24L700.3407777777778,219.24L704.413,219.24L708.3223333333334,219.24L708.4852222222222,211.68L712.5574444444445,211.68L716.6296666666667,211.68L720.7018888888889,211.68L724.7741111111111,211.68L728.8463333333333,211.68L732.9185555555556,211.68L736.9907777777777,211.68L740.4114444444444,211.68L741.0629999999999,204.12L745.1352222222223,204.12L749.2074444444445,204.12L753.2796666666667,204.12L757.3518888888889,204.12L761.4241111111111,204.12L765.4963333333334,204.12L769.5685555555556,204.12L772.5005555555556,204.12L773.6407777777778,196.56L777.713,196.56L781.7852222222222,196.56L785.8574444444444,196.56L789.9296666666668,196.56L794.001888888889,196.56L798.0741111111112,196.56L802.1463333333334,196.56L804.5896666666666,196.56L806.2185555555556,189L810.2907777777777,189L814.3629999999999,189L818.4352222222223,189L822.5074444444444,189L826.5796666666666,189L830.6518888888888,189L834.7241111111111,189L836.6787777777778,189L838.7963333333335,181.44L842.8685555555556,181.44L846.9407777777778,181.44L851.013,181.44L855.0852222222222,181.44L859.1574444444444,181.44L863.2296666666666,181.44L867.3018888888888,181.44L868.7678888888888,181.44L871.374111111111,173.88L875.4463333333333,173.88L879.5185555555555,173.88L883.5907777777778,173.88L887.663,173.88L891.7352222222223,173.88L895.8074444444445,173.88L899.8796666666667,173.88L900.8570000000001,173.88L903.9518888888889,166.32L908.0241111111111,166.32L912.0963333333333,166.32L916.1685555555555,166.32L920.2407777777777,166.32L924.3129999999999,166.32L928.3852222222223,166.32L932.4574444444445,166.32L932.9461111111111,166.32L936.5296666666667,158.76000000000002L940.6018888888889,158.76000000000002L944.6741111111111,158.76000000000002L948.7463333333334,158.76000000000002L952.8185555555556,158.76000000000002L956.8907777777778,158.76000000000002L960.963,158.76000000000002L965.0352222222222,158.76000000000002L965.0352222222222,158.76000000000002L969.1074444444444,151.20000000000002L973.1796666666668,151.20000000000002L977.251888888889,151.20000000000002L981.3241111111112,151.20000000000002L985.3963333333334,151.20000000000002L989.4685555555556,151.20000000000002L993.5407777777777,151.20000000000002L997.1243333333334,151.20000000000002L997.6129999999999,143.64000000000001L1001.6852222222223,143.64000000000001L1005.7574444444444,143.64000000000001L1009.8296666666666,143.64000000000001L1013.9018888888888,143.64000000000001L1017.9741111111111,143.64000000000001L1022.0463333333335,143.64000000000001L1026.1185555555555,143.64000000000001L1029.2134444444443,143.64000000000001L1030.1907777777778,136.07999999999998L1034.263,136.07999999999998L1038.3352222222222,136.07999999999998L1042.4074444444445,136.07999999999998L1046.4796666666666,136.07999999999998L1050.551888888889,136.07999999999998L1054.624111111111,136.07999999999998L1058.6963333333333,136.07999999999998L1061.3025555555555,136.07999999999998L1062.7685555555554,128.51999999999998L1066.840777777778,128.51999999999998L1070.913,128.51999999999998L1074.9852222222223,128.51999999999998L1079.0574444444444,128.51999999999998L1083.1296666666667,128.51999999999998L1087.2018888888888,128.51999999999998L1091.274111111111,128.51999999999998L1093.3916666666667,128.51999999999998L1095.3463333333334,120.95999999999998L1099.4185555555555,120.95999999999998L1103.4907777777778,120.95999999999998L1107.5629999999999,120.95999999999998L1111.6352222222222,120.95999999999998L1115.7074444444445,120.95999999999998L1119.7796666666668,120.95999999999998L1123.8518888888889,120.95999999999998L1125.4807777777778,120.95999999999998L1127.9241111111112,113.40000000000003L1131.9963333333333,113.40000000000003L1136.0685555555556,113.40000000000003L1140.1407777777777,113.40000000000003L1144.213,113.40000000000003L1148.2852222222223,113.40000000000003L1152.3574444444444,113.40000000000003L1156.4296666666667,113.40000000000003L1157.569888888889,113.40000000000003L1160.501888888889,105.84000000000003L1164.574111111111,105.84000000000003L1168.6463333333334,105.84000000000003L1172.7185555555557,105.84000000000003L1176.7907777777777,105.84000000000003L1180.863,105.84000000000003L1184.9352222222221,105.84000000000003L1189.0074444444444,105.84000000000003L1189.659,105.84000000000003L1193.0796666666665,98.28000000000003L1197.1518888888888,98.28000000000003L1201.2241111111111,98.28000000000003L1205.2963333333335,98.28000000000003L1209.3685555555555,98.28000000000003L1213.4407777777778,98.28000000000003L1217.513,98.28000000000003L1221.5852222222222,98.28000000000003L1221.748111111111,98.28000000000003L1225.6574444444445,90.71999999999997L1229.7296666666666,90.71999999999997L1233.801888888889,90.71999999999997L1237.874111111111,90.71999999999997L1241.9463333333333,90.71999999999997L1246.0185555555554,90.71999999999997L1250.090777777778,90.71999999999997L1253.8372222222222,90.71999999999997L1254.163,83.15999999999997L1258.2352222222223,83.15999999999997L1262.3074444444444,83.15999999999997L1266.3796666666667,83.15999999999997L1270.4518888888888,83.15999999999997L1274.524111111111,83.15999999999997L1278.5963333333334,83.15999999999997L1282.6685555555555,83.15999999999997L1285.9263333333333,83.15999999999997L1286.7407777777778,75.59999999999997L1290.8129999999999,75.59999999999997L1294.8852222222222,75.59999999999997L1298.9574444444445,75.59999999999997L1303.0296666666668,75.59999999999997L1307.1018888888889,75.59999999999997L1311.1741111111112,75.59999999999997L1315.2463333333333,75.59999999999997L1318.0154444444445,75.59999999999997L1319.3185555555556,68.04000000000002L1323.3907777777777,68.04000000000002L1327.463,68.04000000000002L1331.5352222222223,68.04000000000002L1335.6074444444444,68.04000000000002L1339.6796666666667,68.04000000000002L1343.751888888889,68.04000000000002L1347.824111111111,68.04000000000002L1350.1045555555556,68.04000000000002L1351.8963333333334,60.48000000000002L1355.9685555555557,60.48000000000002L1360.0407777777777,60.48000000000002L1364.113,60.48000000000002L1368.1852222222221,60.48000000000002L1372.2574444444444,60.48000000000002L1376.3296666666665,60.48000000000002L1380.4018888888888,60.48000000000002L1382.1936666666666,60.48000000000002L1384.4741111111111,52.920000000000016L1388.5463333333335,52.920000000000016" style="fill: none;" fill="none"></path></g><g><path stroke="rgb(255, 112, 67)" stroke-width="2px" d="M166.87966666666665,340.2L170.95188888888887,340.2L175.02411111111113,340.2L179.09633333333335,340.2L183.16855555555554,340.2L187.24077777777777,340.2L191.31300000000002,340.2L194.89655555555555,340.2L195.3852222222222,332.64L199.45744444444446,332.64L203.52966666666669,332.64L207.60188888888888,332.64L211.67411111111113,332.64L215.74633333333333,332.64L219.81855555555555,332.64L223.8907777777778,332.64L226.98566666666665,332.64L227.963,325.08L232.03522222222222,325.08L236.10744444444447,325.08L240.17966666666666,325.08L244.25188888888886,325.08L248.3241111111111,325.08L252.39633333333333,325.08L256.46855555555555,325.08L259.0747777777778,325.08L260.5407777777778,317.52L264.613,317.52L268.68522222222225,317.52L272.75744444444445,317.52L276.82966666666664,317.52L280.9018888888889,317.52L284.9741111111111,317.52L289.04633333333334,317.52L291.1638888888889,317.52L293.1185555555556,309.96000000000004L297.1907777777778,309.96000000000004L301.263,309.96000000000004L305.3352222222222,309.96000000000004L309.4074444444444,309.96000000000004L313.4796666666667,309.96000000000004L317.55188888888887,309.96000000000004L321.6241111111111,309.96000000000004L323.253,309.96000000000004L325.69633333333337,302.4L329.76855555555557,302.4L333.84077777777776,302.4L337.913,302.4L341.9852222222222,302.4L346.05744444444446,302.4L350.12966666666665,302.4L354.2018888888889,302.4L355.3421111111111,302.4L358.2741111111111,294.84000000000003L362.34633333333335,294.84000000000003L366.41855555555554,294.84000000000003L370.4907777777778,294.84000000000003L374.563,294.84000000000003L378.63522222222224,294.84000000000003L382.70744444444443,294.84000000000003L386.7796666666666,294.84000000000003L387.43122222222223,294.84000000000003L390.85188888888894,287.28L394.92411111111113,287.28L398.9963333333333,287.28L403.0685555555555,287.28L407.14077777777777,287.28L411.213,287.28L415.2852222222223,287.28L419.35744444444447,287.28L419.5203333333333,287.28L423.42966666666666,279.72L427.50188888888886,279.72L431.57411111111105,279.72L435.64633333333336,279.72L439.71855555555555,279.72L443.7907777777778,279.72L447.863,279.72L451.6094444444445,279.72L451.9352222222222,272.15999999999997L456.0074444444444,272.15999999999997L460.0796666666667,272.15999999999997L464.1518888888889,272.15999999999997L468.2241111111111,272.15999999999997L472.29633333333334,272.15999999999997L476.36855555555553,272.15999999999997L480.44077777777784,272.15999999999997L483.6985555555555,272.15999999999997L484.51300000000003,264.6L488.5852222222222,264.6L492.6574444444444,264.6L496.7296666666667,264.6L500.80188888888887,264.6L504.8741111111111,264.6L508.94633333333337,264.6L513.0185555555555,264.6L515.7876666666666,264.6L517.0907777777778,257.03999999999996L521.163,257.03999999999996L525.2352222222222,257.03999999999996L529.3074444444445,257.03999999999996L533.3796666666667,257.03999999999996L537.4518888888889,257.03999999999996L541.5241111111111,257.03999999999996L545.5963333333333,257.03999999999996L547.8767777777778,257.03999999999996L549.6685555555556,249.48L553.7407777777778,249.48L557.813,249.48L561.8852222222222,249.48L565.9574444444444,249.48L570.0296666666667,249.48L574.1018888888889,249.48L578.1741111111111,249.48L579.9658888888889,249.48L582.2463333333334,241.92000000000002L586.3185555555556,241.92000000000002L590.3907777777778,241.92000000000002L594.4630000000001,241.92000000000002L598.5352222222223,241.92000000000002L602.6074444444445,241.92000000000002L606.6796666666667,241.92000000000002L610.7518888888889,241.92000000000002L612.055,241.92000000000002L614.824111111111,234.35999999999999L618.8963333333334,234.35999999999999L622.9685555555556,234.35999999999999L627.0407777777777,234.35999999999999L631.1129999999999,234.35999999999999L635.1852222222223,234.35999999999999L639.2574444444444,234.35999999999999L643.3296666666666,234.35999999999999L644.1441111111111,234.35999999999999L647.401888888889,226.79999999999998L651.4741111111111,226.79999999999998L655.5463333333333,226.79999999999998L659.6185555555555,226.79999999999998L663.6907777777778,226.79999999999998L667.763,226.79999999999998L671.8352222222222,226.79999999999998L675.9074444444444,226.79999999999998L676.2332222222223,226.79999999999998L679.9796666666666,219.24L684.0518888888888,219.24L688.1241111111111,219.24L692.1963333333333,219.24L696.2685555555555,219.24L700.3407777777778,219.24L704.413,219.24L708.3223333333334,219.24L708.4852222222222,211.68L712.5574444444445,211.68L716.6296666666667,211.68L720.7018888888889,211.68L724.7741111111111,211.68L728.8463333333333,211.68L732.9185555555556,211.68L736.9907777777777,211.68L740.4114444444444,211.68L741.0629999999999,204.12L745.1352222222223,204.12L749.2074444444445,204.12L753.2796666666667,204.12L757.3518888888889,204.12L761.4241111111111,204.12L765.4963333333334,204.12L769.5685555555556,204.12L772.5005555555556,204.12L773.6407777777778,196.56L777.713,196.56L781.7852222222222,196.56L785.8574444444444,196.56L789.9296666666668,196.56L794.001888888889,196.56L798.0741111111112,196.56L802.1463333333334,196.56L804.5896666666666,196.56L806.2185555555556,189L810.2907777777777,189L814.3629999999999,189L818.4352222222223,189L822.5074444444444,189L826.5796666666666,189L830.6518888888888,189L834.7241111111111,189L836.6787777777778,189L838.7963333333335,181.44L842.8685555555556,181.44L846.9407777777778,181.44L851.013,181.44L855.0852222222222,181.44L859.1574444444444,181.44L863.2296666666666,181.44L867.3018888888888,181.44L868.7678888888888,181.44L871.374111111111,173.88L875.4463333333333,173.88L879.5185555555555,173.88L883.5907777777778,173.88L887.663,173.88L891.7352222222223,173.88L895.8074444444445,173.88L899.8796666666667,173.88L900.8570000000001,173.88L903.9518888888889,166.32L908.0241111111111,166.32L912.0963333333333,166.32L916.1685555555555,166.32L920.2407777777777,166.32L924.3129999999999,166.32L928.3852222222223,166.32L932.4574444444445,166.32L932.9461111111111,166.32L936.5296666666667,158.76000000000002L940.6018888888889,158.76000000000002L944.6741111111111,158.76000000000002L948.7463333333334,158.76000000000002L952.8185555555556,158.76000000000002L956.8907777777778,158.76000000000002L960.963,158.76000000000002L965.0352222222222,158.76000000000002L965.0352222222222,158.76000000000002L969.1074444444444,151.20000000000002L973.1796666666668,151.20000000000002L977.251888888889,151.20000000000002L981.3241111111112,151.20000000000002L985.3963333333334,151.20000000000002L989.4685555555556,151.20000000000002L993.5407777777777,151.20000000000002L997.1243333333334,151.20000000000002L997.6129999999999,143.64000000000001L1001.6852222222223,143.64000000000001L1005.7574444444444,143.64000000000001L1009.8296666666666,143.64000000000001L1013.9018888888888,143.64000000000001L1017.9741111111111,143.64000000000001L1022.0463333333335,143.64000000000001L1026.1185555555555,143.64000000000001L1029.2134444444443,143.64000000000001L1030.1907777777778,136.07999999999998L1034.263,136.07999999999998L1038.3352222222222,136.07999999999998L1042.4074444444445,136.07999999999998L1046.4796666666666,136.07999999999998L1050.551888888889,136.07999999999998L1054.624111111111,136.07999999999998L1058.6963333333333,136.07999999999998L1061.3025555555555,136.07999999999998L1062.7685555555554,128.51999999999998L1066.840777777778,128.51999999999998L1070.913,128.51999999999998L1074.9852222222223,128.51999999999998L1079.0574444444444,128.51999999999998L1083.1296666666667,128.51999999999998L1087.2018888888888,128.51999999999998L1091.274111111111,128.51999999999998L1093.3916666666667,128.51999999999998L1095.3463333333334,120.95999999999998L1099.4185555555555,120.95999999999998L1103.4907777777778,120.95999999999998L1107.5629999999999,120.95999999999998L1111.6352222222222,120.95999999999998L1115.7074444444445,120.95999999999998L1119.7796666666668,120.95999999999998L1123.8518888888889,120.95999999999998L1125.4807777777778,120.95999999999998L1127.9241111111112,113.40000000000003L1131.9963333333333,113.40000000000003L1136.0685555555556,113.40000000000003L1140.1407777777777,113.40000000000003L1144.213,113.40000000000003L1148.2852222222223,113.40000000000003L1152.3574444444444,113.40000000000003L1156.4296666666667,113.40000000000003L1157.569888888889,113.40000000000003L1160.501888888889,105.84000000000003L1164.574111111111,105.84000000000003L1168.6463333333334,105.84000000000003L1172.7185555555557,105.84000000000003L1176.7907777777777,105.84000000000003L1180.863,105.84000000000003L1184.9352222222221,105.84000000000003L1189.0074444444444,105.84000000000003L1189.659,105.84000000000003L1193.0796666666665,98.28000000000003L1197.1518888888888,98.28000000000003L1201.2241111111111,98.28000000000003L1205.2963333333335,98.28000000000003L1209.3685555555555,98.28000000000003L1213.4407777777778,98.28000000000003L1217.513,98.28000000000003L1221.5852222222222,98.28000000000003L1221.748111111111,98.28000000000003L1225.6574444444445,90.71999999999997L1229.7296666666666,90.71999999999997L1233.801888888889,90.71999999999997L1237.874111111111,90.71999999999997L1241.9463333333333,90.71999999999997L1246.0185555555554,90.71999999999997L1250.090777777778,90.71999999999997L1253.8372222222222,90.71999999999997L1254.163,83.15999999999997L1258.2352222222223,83.15999999999997L1262.3074444444444,83.15999999999997L1266.3796666666667,83.15999999999997L1270.4518888888888,83.15999999999997L1274.524111111111,83.15999999999997L1278.5963333333334,83.15999999999997L1282.6685555555555,83.15999999999997L1285.9263333333333,83.15999999999997L1286.7407777777778,75.59999999999997L1290.8129999999999,75.59999999999997L1294.8852222222222,75.59999999999997L1298.9574444444445,75.59999999999997L1303.0296666666668,75.59999999999997L1307.1018888888889,75.59999999999997L1311.1741111111112,75.59999999999997L1315.2463333333333,75.59999999999997L1318.0154444444445,75.59999999999997L1319.3185555555556,68.04000000000002L1323.3907777777777,68.04000000000002L1327.463,68.04000000000002L1331.5352222222223,68.04000000000002L1335.6074444444444,68.04000000000002L1339.6796666666667,68.04000000000002L1343.751888888889,68.04000000000002L1347.824111111111,68.04000000000002L1350.1045555555556,68.04000000000002L1351.8963333333334,60.48000000000002L1355.9685555555557,60.48000000000002L1360.0407777777777,60.48000000000002L1364.113,60.48000000000002L1368.1852222222221,60.48000000000002L1372.2574444444444,60.48000000000002L1376.3296666666665,60.48000000000002L1380.4018888888888,60.48000000000002L1382.1936666666666,60.48000000000002" style="fill: none;" fill="none"></path></g></g></g></g></g></g><g transform="translate(30, 378)" clip-path="url(#clip_1)"><clipPath id="clip_1"><rect width="1466" height="22"></rect></clipPath><g><g><line x1="0" y1="0" x2="0" y2="5" style="visibility: inherit;" fill="rgb(0, 0, 0)" stroke="rgb(204, 204, 204)" stroke-width="1px"></line><line x1="162.88888888888889" y1="0" x2="162.88888888888889" y2="5" style="visibility: inherit;" fill="rgb(0, 0, 0)" stroke="rgb(204, 204, 204)" stroke-width="1px"></line><line x1="325.77777777777777" y1="0" x2="325.77777777777777" y2="5" style="visibility: inherit;" fill="rgb(0, 0, 0)" stroke="rgb(204, 204, 204)" stroke-width="1px"></line><line x1="488.66666666666663" y1="0" x2="488.66666666666663" y2="5" style="visibility: inherit;" fill="rgb(0, 0, 0)" stroke="rgb(204, 204, 204)" stroke-width="1px"></line><line x1="651.5555555555555" y1="0" x2="651.5555555555555" y2="5" style="visibility: inherit;" fill="rgb(0, 0, 0)" stroke="rgb(204, 204, 204)" stroke-width="1px"></line><line x1="814.4444444444445" y1="0" x2="814.4444444444445" y2="5" style="visibility: inherit;" fill="rgb(0, 0, 0)" stroke="rgb(204, 204, 204)" stroke-width="1px"></line><line x1="977.3333333333333" y1="0" x2="977.3333333333333" y2="5" style="visibility: inherit;" fill="rgb(0, 0, 0)" stroke="rgb(204, 204, 204)" stroke-width="1px"></line><line x1="1140.2222222222222" y1="0" x2="1140.2222222222222" y2="5" style="visibility: inherit;" fill="rgb(0, 0, 0)" stroke="rgb(204, 204, 204)" stroke-width="1px"></line><line x1="1303.111111111111" y1="0" x2="1303.111111111111" y2="5" style="visibility: inherit;" fill="rgb(0, 0, 0)" stroke="rgb(204, 204, 204)" stroke-width="1px"></line><line x1="1466" y1="0" x2="1466" y2="5" style="visibility: inherit;" fill="rgb(0, 0, 0)" stroke="rgb(204, 204, 204)" stroke-width="1px"></line></g><g transform="translate(0, 8)"><text x="0" y="0" dx="0em" dy="0.95em" style="text-anchor: middle; visibility: hidden; font-family: &quot;Helvetica Neue&quot;, sans-serif; font-size: 12px; font-weight: 200;" fill="rgb(50, 49, 63)" stroke="none" stroke-width="1px">-2k</text><text x="162.88888888888889" y="0" dx="0em" dy="0.95em" style="text-anchor: middle; visibility: inherit; font-family: &quot;Helvetica Neue&quot;, sans-serif; font-size: 12px; font-weight: 200;" fill="rgb(50, 49, 63)" stroke="none" stroke-width="1px">0</text><text x="325.77777777777777" y="0" dx="0em" dy="0.95em" style="text-anchor: middle; visibility: inherit; font-family: &quot;Helvetica Neue&quot;, sans-serif; font-size: 12px; font-weight: 200;" fill="rgb(50, 49, 63)" stroke="none" stroke-width="1px">2k</text><text x="488.66666666666663" y="0" dx="0em" dy="0.95em" style="text-anchor: middle; visibility: inherit; font-family: &quot;Helvetica Neue&quot;, sans-serif; font-size: 12px; font-weight: 200;" fill="rgb(50, 49, 63)" stroke="none" stroke-width="1px">4k</text><text x="651.5555555555555" y="0" dx="0em" dy="0.95em" style="text-anchor: middle; visibility: inherit; font-family: &quot;Helvetica Neue&quot;, sans-serif; font-size: 12px; font-weight: 200;" fill="rgb(50, 49, 63)" stroke="none" stroke-width="1px">6k</text><text x="814.4444444444445" y="0" dx="0em" dy="0.95em" style="text-anchor: middle; visibility: inherit; font-family: &quot;Helvetica Neue&quot;, sans-serif; font-size: 12px; font-weight: 200;" fill="rgb(50, 49, 63)" stroke="none" stroke-width="1px">8k</text><text x="977.3333333333333" y="0" dx="0em" dy="0.95em" style="text-anchor: middle; visibility: inherit; font-family: &quot;Helvetica Neue&quot;, sans-serif; font-size: 12px; font-weight: 200;" fill="rgb(50, 49, 63)" stroke="none" stroke-width="1px">10k</text><text x="1140.2222222222222" y="0" dx="0em" dy="0.95em" style="text-anchor: middle; visibility: inherit; font-family: &quot;Helvetica Neue&quot;, sans-serif; font-size: 12px; font-weight: 200;" fill="rgb(50, 49, 63)" stroke="none" stroke-width="1px">12k</text><text x="1303.111111111111" y="0" dx="0em" dy="0.95em" style="text-anchor: middle; visibility: inherit; font-family: &quot;Helvetica Neue&quot;, sans-serif; font-size: 12px; font-weight: 200;" fill="rgb(50, 49, 63)" stroke="none" stroke-width="1px">14k</text><text x="1466" y="0" dx="0em" dy="0.95em" style="text-anchor: middle; visibility: hidden; font-family: &quot;Helvetica Neue&quot;, sans-serif; font-size: 12px; font-weight: 200;" fill="rgb(50, 49, 63)" stroke="none" stroke-width="1px">16k</text></g><line x1="0" y1="0" x2="1466" y2="0" fill="rgb(0, 0, 0)" stroke="rgb(204, 204, 204)" stroke-width="1px"></line></g></g></g></g></svg>